<?xml version="1.0" encoding="utf-8"?>
<!-- Svg Vector Icons : http://www.sfont.cn -->
<!DOCTYPE svg PUBLIC "-//W3C//DTD SVG 1.1//EN" "http://www.w3.org/Graphics/SVG/1.1/DTD/svg11.dtd">
<svg version="1.1" xmlns="http://www.w3.org/2000/svg" xmlns:xlink="http://www.w3.org/1999/xlink" x="0px" y="0px" viewBox="0 0 1000 1000" enable-background="new 0 0 1000 1000" xml:space="preserve">
<metadata> Svg Vector Icons : http://www.sfont.cn </metadata>
<g><path d="M720.6,673.8c-221-15.6-220.6,81.7-220.6,81.7s0.4-97.3-220.6-81.7c0,0-97.3,6-154.9-62.5c0,0,30.8,275,375.5,290.6c344.7-15.6,375.5-290.6,375.5-290.6C817.9,679.8,720.6,673.8,720.6,673.8z"/><path d="M807.9,444.3c-75.5,77.4-188.8,103.9-188.8,103.9C745.6,652,807.9,444.3,807.9,444.3z"/><path d="M381,548.1c0,0-113.3-26.4-188.8-103.9C192.1,444.3,254.5,652,381,548.1z"/><path d="M756.7,19v64.4C681.9,37.2,594.2,10,500,10c-94.2,0-181.9,27.2-256.6,73.4V19c-77,61.5-117.6,144.1-135,187.8C46.9,288.6,10,390,10,500c0,270.2,219.8,490,490,490c270.2,0,490-219.8,490-490c0-110-36.9-211.3-98.3-293.2C874.3,163.2,833.7,80.5,756.7,19z M500,932.4c-238.4,0-432.4-194-432.4-432.4c0-238.4,194-432.4,432.4-432.4c238.4,0,432.4,194,432.4,432.4C932.4,738.4,738.4,932.4,500,932.4z"/></g>
</svg>