<?xml version="1.0" encoding="utf-8"?>
<!-- Svg Vector Icons : http://www.sfont.cn -->
<!DOCTYPE svg PUBLIC "-//W3C//DTD SVG 1.1//EN" "http://www.w3.org/Graphics/SVG/1.1/DTD/svg11.dtd">
<svg version="1.1" xmlns="http://www.w3.org/2000/svg" xmlns:xlink="http://www.w3.org/1999/xlink" x="0px" y="0px" viewBox="0 0 1000 1000" enable-background="new 0 0 1000 1000" xml:space="preserve">
<metadata> Svg Vector Icons : http://www.sfont.cn </metadata>
<g><path d="M457,990c-0.5,0-1.1,0-1.6-0.1c-22.1-1.9-41.6-19.7-45.4-41.5l-16.7-99.3c-1-5.8-8-14.1-13.6-16l-29.1-12c-8.2-3.8-18.4-1.3-21.8,1.2l-82.3,58.4c-17.1,12.3-45.1,11.1-61.4-2.8L123.1,816c-15.3-17.6-16.7-44.6-4-62.5l58.4-82.2c3.3-4.6,4-14.9,1.4-20l0,0c0,0-1.5-2.8-6.8-15.6c-5.6-13.6-6.3-15.9-6.3-15.9c-1.7-5.5-9.5-12.3-15.1-13.2l-99.3-16.7c-21.7-3.7-39.9-23.8-41.4-45.7l0-87.1c1.7-23.5,20-43.5,41.7-47l99.1-16.9c5.8-0.9,14-7.9,16-13.5l12.1-29.2c3.1-6.4,2.2-17.1-1.3-22l-58.3-82c-12.8-18.1-11.6-44.6,2.7-61.5l62.1-62c17.7-15.7,44.9-16.3,62.4-3.9l82.2,58.3c3.3,2.4,15,4,20,1.4c0.4-0.2,2.4-1.3,15.6-6.7c13.3-5.5,15.5-6.2,15.5-6.2c5.7-1.8,12.5-9.6,13.4-15.2L410,51.5c3.9-22.1,23.5-39.8,45.6-41.4l87.3-0.1c23.6,1.8,43.2,19.6,47.1,41.5l16.8,99.4c1,5.8,8,14,13.6,16l29.1,11.9c8.3,3.9,18.4,1.3,21.8-1.1l82.2-58.4c17.1-12.3,45.1-11.1,61.5,2.8l61.9,61.8c15.4,17.5,16.7,44.6,4,62.5l-58.4,82.2c-3.2,4.6-4,14.9-1.3,19.9c0.2,0.4,1.3,2.4,6.8,15.7c5.5,13.3,6.2,15.5,6.2,15.5c1.8,5.8,9.6,12.5,15.3,13.6l99.3,16.7c21.7,3.7,39.8,23.8,41.4,45.7v87.3c-1.9,23.6-20.1,43.5-41.7,47l-99.1,16.9c-5.8,0.9-14,7.9-16,13.6l-12.1,29.1c-3,6.3-2.1,17.1,1.3,22l58.3,82c12.8,18.2,11.6,44.6-2.8,61.6l-61.8,61.9c-18.1,15.8-45.1,16.3-62.5,4l-82.2-58.3c-3.4-2.5-15-4-19.9-1.4c-0.6,0.3-2.5,1.3-15.7,6.8c-13.6,5.7-15.9,6.3-15.9,6.3c-5.3,1.6-12.2,9.6-13.1,15.1L590,948.5c-3.9,22.1-23.5,39.9-45.6,41.4L457,990L457,990z M341.2,779.9c9.2,0,18,1.9,25.3,5.4l27,11.1c18,6.2,34.9,26.2,38.3,46.1l16.7,99.3c0.7,3.8,5.4,8.3,9.5,9l84.9,0c2.6-0.2,7.6-4.8,8.3-8.9l16.8-99.2c3.4-20.2,20.7-40,40.2-46c0.3-0.1,3.2-1.2,12.5-5.1c9.9-4.1,12.6-5.3,13.2-5.6c15.6-8.4,44-7,60.1,4.4l82.2,58.3c3.1,2.3,10.3,1.9,13.1-0.6l59.7-59.8c1.6-2,2-9-0.4-12.3l-58.3-81.9c-11.6-16.4-13.8-42.5-5.1-60.6l11.3-27.2c6.3-18.1,26.3-35,46.1-38.2l99.1-16.9c4-0.7,8.7-5.8,9-10l-0.1-84.3c-0.2-2.6-4.8-7.7-8.7-8.4l-99.3-16.7c-20.3-3.5-40-20.8-46-40.2l0,0c0,0-1.1-2.9-5.1-12.5c-4.1-9.8-5.3-12.5-5.6-13.1c-9.1-17.2-7.4-43.4,4.4-60.1l58.6-82.2c2.3-3.2,1.9-10-0.7-13.1l-59.8-59.8c-0.8-0.5-9.1-1.7-12.2,0.4L694,209.5c-15.6,11.2-42.8,13.6-60.5,5l-27.1-11.1c-18.1-6.4-35-26.3-38.4-46.1l-16.7-99.3c-0.7-4-5.8-8.7-10-9l-84.4,0c-2.6,0.2-7.6,4.9-8.3,8.9l-16.8,99.2c-3.4,20.1-20.6,39.9-40.1,46c0,0-2.8,1.1-12.5,5.1c-9.8,4-12.5,5.3-13.1,5.6c-16,8.5-44.1,7-60.2-4.4l-82.2-58.3c-3-2.2-10.2-1.8-12.9,0.5l-60.1,59.9c-1.6,2-1.9,8.9,0.5,12.3l58.3,81.9c11.7,16.5,13.9,42.6,5.1,60.7l-11.2,27c-6.3,18-26.3,35-46.1,38.2l-99.2,16.9c-4,0.7-8.7,5.8-9,9.8l0.1,84.4c0.2,2.6,4.8,7.7,8.7,8.4l99.3,16.7c20.1,3.5,39.8,20.7,45.9,40.1c0.1,0.3,1.2,3.2,5.1,12.7c3.7,9,5.1,11.8,5.4,12.6c9.3,18,7.5,44-4.2,60.6l-58.4,82.2c-2.4,3.3-2,10,0.7,13.1l59.8,59.7c0.8,0.5,9.1,1.8,12.1-0.4l82.2-58.4C315.1,783.8,328,779.9,341.2,779.9z"/><path d="M500,737.4C369,737.4,262.5,630.9,262.5,500S369,262.5,500,262.5c130.9,0,237.5,106.5,237.5,237.4S630.9,737.4,500,737.4z M500,301.7c-109.3,0-198.2,88.9-198.2,198.2c0,109.3,88.9,198.2,198.2,198.2c109.3,0,198.3-88.9,198.3-198.2S609.3,301.7,500,301.7z"/></g>
</svg>