<?xml version="1.0" encoding="utf-8"?>
<!-- Svg Vector Icons : http://www.sfont.cn -->
<!DOCTYPE svg PUBLIC "-//W3C//DTD SVG 1.1//EN" "http://www.w3.org/Graphics/SVG/1.1/DTD/svg11.dtd">
<svg version="1.1" xmlns="http://www.w3.org/2000/svg" xmlns:xlink="http://www.w3.org/1999/xlink" x="0px" y="0px" viewBox="0 0 1000 1000" enable-background="new 0 0 1000 1000" xml:space="preserve">
<metadata> Svg Vector Icons : http://www.sfont.cn </metadata>
<g><path d="M828.2,854C647,1035.3,353,1035.3,171.8,854c-181.3-181.3-181.3-475.2,0-656.5l36.5-36.5c20.1-20.1,52.8-20.1,72.9,0c20.1,20.2,20.1,52.8,0,73l-36.5,36.5c-141,141-141,369.6,0,510.6c141,141,369.6,141,510.6,0c141-141,141-369.6,0-510.6L718.8,234c-20.1-20.2-20.1-52.8,0-73c20.1-20.1,52.8-20.1,72.9,0l36.5,36.5C1009.5,378.8,1009.5,672.7,828.2,854z M500,422.6c-28.5,0-51.6-23.1-51.6-51.6V61.6c0-28.5,23.1-51.6,51.6-51.6c28.5,0,51.6,23.1,51.6,51.6V371C551.6,399.5,528.5,422.6,500,422.6z"/></g>
</svg>