<?xml version="1.0" encoding="utf-8"?>
<!-- Svg Vector Icons : http://www.sfont.cn -->
<!DOCTYPE svg PUBLIC "-//W3C//DTD SVG 1.1//EN" "http://www.w3.org/Graphics/SVG/1.1/DTD/svg11.dtd">
<svg version="1.1" xmlns="http://www.w3.org/2000/svg" xmlns:xlink="http://www.w3.org/1999/xlink" x="0px" y="0px" viewBox="0 0 1000 1000" enable-background="new 0 0 1000 1000" xml:space="preserve">
<metadata> Svg Vector Icons : http://www.sfont.cn </metadata>
<g><path d="M500,10C229.9,10,10,229.9,10,500c0,270.2,219.9,490,490,490c270.2,0,490-219.9,490-490C990,229.8,770.2,10,500,10z M650.9,287.9c2.5-44.2,16.1-81.5,65-81.5c55.8,0,73.6,49.6,71.3,97.3c-2.5,47.1-22.8,91.1-75.6,83.9C662.3,380.9,648.4,335.1,650.9,287.9z M207.4,294.1c3.4-45,21.7-87.8,77.7-87.4c51,0.3,69.8,49.6,66.6,97.5c-3.1,46.6-22.1,90-76,84.6C226.1,383.8,203.7,341.5,207.4,294.1z M498.6,873.2c-172.3-1.1-310.6-97.1-355-245.1c-17.7-58.9-15.6-96.1,63.2-94.8c197.6,3.1,395.2,3,592.7-0.1c72.4-1,74.1,27.9,56.9,85.5C808.1,778.9,677.1,874.1,498.6,873.2z"/></g>
</svg>